<svg width="48" height="46" viewBox="0 0 48 46" fill="none" xmlns="http://www.w3.org/2000/svg">
<g clip-path="url(#clip0_3202_1904)">
<rect width="48" height="46" rx="5" fill="#1F002B"/>
<path d="M22.8565 28.9091H26.7202L29.9588 33.1705L30.8111 34.3068L35.6406 40.7273H31.777L28.5952 36.4659L27.7997 35.3864L22.8565 28.9091ZM36.8338 23.4545C36.8338 26.5227 36.2798 29.1742 35.1719 31.4091C34.0639 33.6439 32.544 35.3674 30.6122 36.5795C28.6804 37.7917 26.474 38.3977 23.9929 38.3977C21.5118 38.3977 19.3054 37.7917 17.3736 36.5795C15.4418 35.3674 13.9219 33.6439 12.8139 31.4091C11.706 29.1742 11.152 26.5227 11.152 23.4545C11.152 20.3864 11.706 17.7348 12.8139 15.5C13.9219 13.2652 15.4418 11.5417 17.3736 10.3295C19.3054 9.11742 21.5118 8.51136 23.9929 8.51136C26.474 8.51136 28.6804 9.11742 30.6122 10.3295C32.544 11.5417 34.0639 13.2652 35.1719 15.5C36.2798 17.7348 36.8338 20.3864 36.8338 23.4545ZM33.4247 23.4545C33.4247 20.9356 33.0033 18.8097 32.1605 17.0767C31.3272 15.3438 30.1955 14.0322 28.7656 13.142C27.3452 12.2519 25.7543 11.8068 23.9929 11.8068C22.2315 11.8068 20.6359 12.2519 19.206 13.142C17.7855 14.0322 16.6539 15.3438 15.8111 17.0767C14.9777 18.8097 14.5611 20.9356 14.5611 23.4545C14.5611 25.9735 14.9777 28.0994 15.8111 29.8324C16.6539 31.5653 17.7855 32.8769 19.206 33.767C20.6359 34.6572 22.2315 35.1023 23.9929 35.1023C25.7543 35.1023 27.3452 34.6572 28.7656 33.767C30.1955 32.8769 31.3272 31.5653 32.1605 29.8324C33.0033 28.0994 33.4247 25.9735 33.4247 23.4545Z" fill="#E4229C"/>
</g>
<defs>
<clipPath id="clip0_3202_1904">
<rect width="48" height="46" rx="5" fill="white"/>
</clipPath>
</defs>
</svg>
